<svg width="8" height="9" viewBox="0 0 8 9" fill="none" xmlns="http://www.w3.org/2000/svg">
<path d="M7.81389 0.686109C7.69469 0.566944 7.53304 0.5 7.36449 0.5C7.19594 0.5 7.03429 0.566944 6.91508 0.686109L4 3.60119L1.08492 0.686109C0.965715 0.566944 0.804064 0.5 0.635513 0.5C0.466962 0.5 0.305311 0.566944 0.186109 0.686109C0.0669437 0.805311 0 0.966962 0 1.13551C0 1.30406 0.0669437 1.46571 0.186109 1.58492L3.10119 4.5L0.186109 7.41508C0.0669437 7.53429 0 7.69594 0 7.86449C0 8.03304 0.0669437 8.19469 0.186109 8.31389C0.305311 8.43306 0.466962 8.5 0.635513 8.5C0.804064 8.5 0.965715 8.43306 1.08492 8.31389L4 5.39881L6.91508 8.31389C7.03429 8.43306 7.19594 8.5 7.36449 8.5C7.53304 8.5 7.69469 8.43306 7.81389 8.31389C7.93306 8.19469 8 8.03304 8 7.86449C8 7.69594 7.93306 7.53429 7.81389 7.41508L4.89881 4.5L7.81389 1.58492C7.93306 1.46571 8 1.30406 8 1.13551C8 0.966962 7.93306 0.805311 7.81389 0.686109Z" fill="#202020"/>
</svg>
