<svg width="22" height="22" viewBox="0 0 22 22" fill="none" xmlns="http://www.w3.org/2000/svg">
<path d="M21.7315 20.4359L16.2599 14.9643C17.7509 13.1407 18.4841 10.8137 18.3076 8.46474C18.1311 6.11576 17.0585 3.92447 15.3117 2.34412C13.5648 0.763782 11.2774 -0.0847018 8.92255 -0.0258226C6.56768 0.0330566 4.32552 0.994793 2.65986 2.66046C0.994191 4.32612 0.0324538 6.56828 -0.0264253 8.92315C-0.0853045 11.278 0.763179 13.5654 2.34352 15.3123C3.92386 17.0591 6.11516 18.1317 8.46414 18.3082C10.8131 18.4847 13.1401 17.7516 14.9637 16.2605L20.4353 21.7321C20.6082 21.899 20.8397 21.9914 21.0801 21.9893C21.3204 21.9873 21.5503 21.8909 21.7203 21.7209C21.8903 21.5509 21.9867 21.321 21.9887 21.0807C21.9908 20.8403 21.8984 20.6088 21.7315 20.4359ZM9.16671 16.5006C7.71631 16.5006 6.29849 16.0706 5.09253 15.2648C3.88657 14.459 2.94664 13.3137 2.39159 11.9737C1.83655 10.6337 1.69133 9.15918 1.97429 7.73665C2.25724 6.31412 2.95568 5.00745 3.98126 3.98186C5.00685 2.95628 6.31352 2.25785 7.73605 1.97489C9.15858 1.69193 10.6331 1.83715 11.9731 2.3922C13.313 2.94724 14.4584 3.88717 15.2642 5.09313C16.07 6.29909 16.5 7.71692 16.5 9.16731C16.4979 11.1116 15.7245 12.9756 14.3497 14.3504C12.975 15.7251 11.111 16.4985 9.16671 16.5006Z" fill="#202020"/>
</svg>
